<mxfile host="65bd71144e">
    <diagram id="tPg7lvVMtvuBfPQgrAko" name="Страница 1">
        <mxGraphModel dx="809" dy="1091" grid="1" gridSize="10" guides="1" tooltips="1" connect="1" arrows="1" fold="1" page="1" pageScale="1" pageWidth="827" pageHeight="1169" math="0" shadow="0">
            <root>
                <mxCell id="0"/>
                <mxCell id="1" parent="0"/>
                <mxCell id="17" style="edgeStyle=none;html=1;entryX=0;entryY=0.5;entryDx=0;entryDy=0;entryPerimeter=0;fontSize=12;endArrow=none;endFill=0;dashed=1;exitX=1;exitY=0.5;exitDx=0;exitDy=0;exitPerimeter=0;" parent="1" target="8" edge="1">
                    <mxGeometry relative="1" as="geometry">
                        <mxPoint x="420" y="72.5" as="sourcePoint"/>
                    </mxGeometry>
                </mxCell>
                <mxCell id="43" style="edgeStyle=none;html=1;exitX=0.5;exitY=0;exitDx=0;exitDy=0;" parent="1" source="125" target="21" edge="1">
                    <mxGeometry relative="1" as="geometry">
                        <mxPoint x="345" y="98.75" as="sourcePoint"/>
                    </mxGeometry>
                </mxCell>
                <mxCell id="8" value="" style="strokeWidth=1;html=1;shape=mxgraph.flowchart.annotation_2;align=left;labelPosition=right;pointerEvents=1;strokeColor=default;fontSize=13;gradientColor=none;" parent="1" vertex="1">
                    <mxGeometry x="447.5" y="19.85" width="50" height="105.31" as="geometry"/>
                </mxCell>
                <mxCell id="9" value="&lt;span style=&quot;font-size: 12px;&quot;&gt;&lt;font style=&quot;color: rgb(0, 0, 0);&quot;&gt;Алгоритм сжатия Хаффмана&lt;/font&gt;&lt;/span&gt;" style="text;html=1;align=left;verticalAlign=middle;resizable=0;points=[];autosize=1;strokeColor=none;fillColor=none;fontSize=13;strokeWidth=1;" parent="1" vertex="1">
                    <mxGeometry x="485" y="19.849999999999998" width="190" height="30" as="geometry"/>
                </mxCell>
                <mxCell id="10" value="Вход:" style="text;html=1;align=center;verticalAlign=middle;resizable=0;points=[];autosize=1;strokeColor=none;fillColor=none;fontSize=12;" parent="1" vertex="1">
                    <mxGeometry x="477.5" y="45.78" width="50" height="30" as="geometry"/>
                </mxCell>
                <mxCell id="11" value="&lt;span style=&quot;color: rgb(0, 0, 0);&quot;&gt;байтовая строка;&lt;/span&gt;&lt;div&gt;&lt;font style=&quot;color: rgb(0, 0, 0);&quot;&gt;дерево Хаффмана;&lt;/font&gt;&lt;br&gt;&lt;div&gt;&lt;div style=&quot;scrollbar-color: light-dark(#e2e2e2, #4b4b4b)&lt;br/&gt;&#x9;&#x9;&#x9;&#x9;&#x9;light-dark(#fbfbfb, var(--dark-panel-color));&quot;&gt;&lt;font&gt;&lt;font style=&quot;color: rgb(0, 0, 0);&quot;&gt;размер кода LZW в байтах (&lt;/font&gt;&lt;span style=&quot;scrollbar-color: light-dark(#e2e2e2, #4b4b4b)&lt;br/&gt;&#x9;&#x9;&#x9;&#x9;&#x9;light-dark(#fbfbfb, var(--dark-panel-color)); background-color: transparent; color: rgb(63, 63, 63);&quot;&gt;&lt;font style=&quot;color: rgb(0, 0, 0);&quot;&gt;code_size&lt;/font&gt;&lt;/span&gt;&lt;span style=&quot;color: light-dark(rgb(0, 0, 0), rgb(237, 237, 237)); scrollbar-color: light-dark(#e2e2e2, #4b4b4b)&lt;br/&gt;&#x9;&#x9;&#x9;&#x9;&#x9;light-dark(#fbfbfb, var(--dark-panel-color)); background-color: transparent;&quot;&gt;).&lt;/span&gt;&lt;/font&gt;&lt;/div&gt;&lt;/div&gt;&lt;/div&gt;" style="text;html=1;align=left;verticalAlign=middle;resizable=0;points=[];autosize=1;strokeColor=none;fillColor=none;fontSize=12;" parent="1" vertex="1">
                    <mxGeometry x="497.5" y="65.16" width="240" height="60" as="geometry"/>
                </mxCell>
                <mxCell id="52" style="edgeStyle=none;html=1;exitX=0.5;exitY=1;exitDx=0;exitDy=0;entryX=0.5;entryY=0;entryDx=0;entryDy=0;" parent="1" source="21" target="119" edge="1">
                    <mxGeometry relative="1" as="geometry">
                        <mxPoint x="345.0000000000001" y="240" as="targetPoint"/>
                    </mxGeometry>
                </mxCell>
                <mxCell id="21" value="Создать пустую&amp;nbsp;&lt;div&gt;&lt;font style=&quot;color: rgb(0, 0, 0);&quot;&gt;битовую строку (bits_str)&lt;/font&gt;&lt;/div&gt;" style="rounded=0;whiteSpace=wrap;html=1;strokeColor=default;strokeWidth=1;fontSize=12;gradientColor=none;" parent="1" vertex="1">
                    <mxGeometry x="242.5" y="116" width="205" height="80" as="geometry"/>
                </mxCell>
                <mxCell id="31" style="edgeStyle=none;html=1;entryX=0;entryY=0.5;entryDx=0;entryDy=0;entryPerimeter=0;fontSize=12;endArrow=none;endFill=0;dashed=1;exitX=1;exitY=0.5;exitDx=0;exitDy=0;exitPerimeter=0;" parent="1" target="32" edge="1">
                    <mxGeometry relative="1" as="geometry">
                        <mxPoint x="420.5000000000001" y="892.8500000000001" as="sourcePoint"/>
                    </mxGeometry>
                </mxCell>
                <mxCell id="32" value="" style="strokeWidth=1;html=1;shape=mxgraph.flowchart.annotation_2;align=left;labelPosition=right;pointerEvents=1;strokeColor=default;fontSize=13;gradientColor=none;" parent="1" vertex="1">
                    <mxGeometry x="430.5" y="866.6700000000001" width="40" height="52.28" as="geometry"/>
                </mxCell>
                <mxCell id="36" value="Возвращает:" style="text;html=1;align=left;verticalAlign=middle;resizable=0;points=[];autosize=1;strokeColor=none;fillColor=none;fontSize=12;" parent="1" vertex="1">
                    <mxGeometry x="458" y="862.7" width="100" height="30" as="geometry"/>
                </mxCell>
                <mxCell id="37" value="&lt;span style=&quot;color: rgb(0, 0, 0);&quot;&gt;байтовую строку&lt;/span&gt;&lt;span style=&quot;background-color: transparent;&quot;&gt;.&lt;/span&gt;" style="text;html=1;align=left;verticalAlign=middle;resizable=0;points=[];autosize=1;strokeColor=none;fillColor=none;fontSize=12;" parent="1" vertex="1">
                    <mxGeometry x="470.5" y="889.1000000000003" width="120" height="30" as="geometry"/>
                </mxCell>
                <mxCell id="127" style="edgeStyle=none;html=1;exitX=0.5;exitY=1;exitDx=0;exitDy=0;entryX=0.5;entryY=1;entryDx=0;entryDy=0;" edge="1" parent="1" source="72" target="126">
                    <mxGeometry relative="1" as="geometry"/>
                </mxCell>
                <mxCell id="72" value="&lt;span style=&quot;color: rgb(0, 0, 0);&quot;&gt;Создать байтовую строку из bits_str&lt;/span&gt;" style="rounded=0;whiteSpace=wrap;html=1;strokeColor=default;strokeWidth=1;fontSize=12;gradientColor=none;" parent="1" vertex="1">
                    <mxGeometry x="243" y="765" width="205" height="80" as="geometry"/>
                </mxCell>
                <mxCell id="114" style="edgeStyle=none;html=1;exitX=0.5;exitY=1;exitDx=0;exitDy=0;entryX=0.5;entryY=0;entryDx=0;entryDy=0;" parent="1" source="106" target="109" edge="1">
                    <mxGeometry relative="1" as="geometry"/>
                </mxCell>
                <mxCell id="106" value="Взять первые code_size байт из входной байтовой строки" style="rounded=0;whiteSpace=wrap;html=1;strokeColor=default;strokeWidth=1;fontSize=12;gradientColor=none;" parent="1" vertex="1">
                    <mxGeometry x="242.53" y="297" width="205" height="80" as="geometry"/>
                </mxCell>
                <mxCell id="115" style="edgeStyle=none;html=1;exitX=0.5;exitY=1;exitDx=0;exitDy=0;" parent="1" source="109" target="110" edge="1">
                    <mxGeometry relative="1" as="geometry"/>
                </mxCell>
                <mxCell id="109" value="Найти узел в дереве Хаффмана&lt;div&gt;&amp;nbsp;&lt;font style=&quot;color: rgb(0, 0, 0);&quot;&gt;по байтовой последовательности&lt;/font&gt; из&amp;nbsp;&lt;span style=&quot;color: rgb(0, 0, 0); background-color: transparent;&quot;&gt;code_size символов&lt;/span&gt;&lt;/div&gt;" style="rounded=0;whiteSpace=wrap;html=1;strokeColor=default;strokeWidth=1;fontSize=12;gradientColor=none;" parent="1" vertex="1">
                    <mxGeometry x="242.53" y="393" width="205" height="80" as="geometry"/>
                </mxCell>
                <mxCell id="124" style="edgeStyle=none;html=1;exitX=0.5;exitY=1;exitDx=0;exitDy=0;entryX=0.5;entryY=1;entryDx=0;entryDy=0;" edge="1" parent="1" source="110" target="122">
                    <mxGeometry relative="1" as="geometry"/>
                </mxCell>
                <mxCell id="110" value="Добавить к строке bits_str значение найденного узла" style="rounded=0;whiteSpace=wrap;html=1;strokeColor=default;strokeWidth=1;fontSize=12;gradientColor=none;" parent="1" vertex="1">
                    <mxGeometry x="242.53" y="489" width="205" height="80" as="geometry"/>
                </mxCell>
                <mxCell id="118" style="edgeStyle=none;html=1;exitX=0.5;exitY=1;exitDx=0;exitDy=0;entryX=0.5;entryY=0;entryDx=0;entryDy=0;" parent="1" source="116" target="72" edge="1">
                    <mxGeometry relative="1" as="geometry"/>
                </mxCell>
                <mxCell id="116" value="&lt;span style=&quot;color: rgb(0, 0, 0);&quot;&gt;Дописать&lt;span style=&quot;color: rgb(0, 0, 0);&quot;&gt;&amp;nbsp;&quot;1&quot;&amp;nbsp;&lt;/span&gt;в конец bits_str;&lt;/span&gt;&lt;div&gt;&lt;span style=&quot;color: rgb(0, 0, 0);&quot;&gt;Дополнить&amp;nbsp;&lt;/span&gt;&lt;span style=&quot;color: rgb(0, 0, 0); background-color: transparent;&quot;&gt;bits_str&lt;/span&gt;&lt;span style=&quot;background-color: transparent;&quot;&gt;&amp;nbsp;&lt;font style=&quot;color: rgb(0, 0, 0);&quot;&gt;с конца &quot;0&quot; до достижения длины строки, кратной 8&lt;/font&gt;&lt;/span&gt;&lt;/div&gt;" style="rounded=0;whiteSpace=wrap;html=1;strokeColor=default;strokeWidth=1;fontSize=12;gradientColor=none;" parent="1" vertex="1">
                    <mxGeometry x="243" y="670" width="205" height="80" as="geometry"/>
                </mxCell>
                <mxCell id="120" style="edgeStyle=none;html=1;exitX=0.5;exitY=1;exitDx=0;exitDy=0;" edge="1" parent="1" source="119" target="106">
                    <mxGeometry relative="1" as="geometry"/>
                </mxCell>
                <mxCell id="119" value="Пока байтовая строка не пуста" style="shape=loopLimit;whiteSpace=wrap;html=1;size=40;" vertex="1" parent="1">
                    <mxGeometry x="242.5" y="211" width="205.03" height="71" as="geometry"/>
                </mxCell>
                <mxCell id="123" style="edgeStyle=none;html=1;exitX=0.5;exitY=0;exitDx=0;exitDy=0;entryX=0.5;entryY=0;entryDx=0;entryDy=0;" edge="1" parent="1" source="122" target="116">
                    <mxGeometry relative="1" as="geometry"/>
                </mxCell>
                <mxCell id="122" value="&lt;span style=&quot;color: rgb(0, 0, 0);&quot;&gt;Конец цикла&amp;nbsp;&lt;/span&gt;&lt;div&gt;&lt;span style=&quot;color: rgb(0, 0, 0);&quot;&gt;по байтовой строке&lt;/span&gt;&lt;/div&gt;" style="shape=loopLimit;whiteSpace=wrap;html=1;size=40;direction=west;" vertex="1" parent="1">
                    <mxGeometry x="242.48000000000002" y="584" width="205.02" height="71" as="geometry"/>
                </mxCell>
                <mxCell id="125" value="&lt;span style=&quot;color: rgb(0, 0, 0); font-family: Helvetica; font-size: 12px;&quot;&gt;Начало&lt;/span&gt;" style="rounded=1;whiteSpace=wrap;html=1;fontSize=14;spacing=3;strokeWidth=1;glass=0;flipH=1;flipV=0;rotation=0;direction=west;arcSize=50;fontFamily=Times New Roman;" vertex="1" parent="1">
                    <mxGeometry x="268" y="42.779999999999994" width="153.57" height="58.06" as="geometry"/>
                </mxCell>
                <mxCell id="126" value="&lt;span style=&quot;color: rgb(0, 0, 0); font-family: Helvetica; font-size: 12px;&quot;&gt;Конец&lt;/span&gt;" style="rounded=1;whiteSpace=wrap;html=1;fontSize=14;spacing=3;strokeWidth=1;glass=0;flipH=1;flipV=0;rotation=0;direction=west;arcSize=50;fontFamily=Times New Roman;" vertex="1" parent="1">
                    <mxGeometry x="269.00000000000006" y="861.67" width="153.57" height="58.06" as="geometry"/>
                </mxCell>
            </root>
        </mxGraphModel>
    </diagram>
</mxfile>